<?xml version="1.0" encoding="UTF-8"?>
<svg viewBox="0 0 744.09447 1052.362179" xmlns="http://www.w3.org/2000/svg">
 <path d="m36.162 731.75c-6.9775-16.594 21.717-28.717 32.857-42.857 7.9623-10.106 17.259-19.222 24.286-30 10.236-15.7 16.777-33.526 25.714-50 9.5559-27.39 11.967-49.361 34.286-60-14.102-29.254 2.566-61.056 5.7143-91.429-7.0256-31.695-6.025-60.258 12.857-88.571-4.457-13.422-35.412-16.934-30-30 3.6446-8.7988 22.65 7.4591 28.571 0-49.236-29.383-57.86-92.174-24.286-104.29-16.815 56.32 12.946 60.833 37.143 74.286 8.2849-1.7373 17.033-22.903 77.143-7.1429 18.083 1.6474 25.227-13.846 58.571 10 22.828-13.857 58.456 14.647 52.857-74.286 53.478 89.843-31.491 64.635-20 95.714 2.2217 6.0089 15.189 6.5147 14.286 12.857-2.163 15.181-35.86 5.7123-41.429 20-11.721 30.072-2.9029 66.132 35.714 90 35.897 8.326 49.326 32.976 80 55.714 42.601-0.6588 85.383 23.525 108.57 32.857 146.07-84.846-56.566-37.376-48.571-94.286 4.1547-26.615 41.026-35.558 57.143-57.143 11.346-15.196-25.136-44.046 27.143-50-13.151 26.797 24.149 22.587 14.244 70.102-48.883 24.533-83.433 18.078-71.805 48.816 42.652 7.8687 158.07 8.9842 42.337 94.011 12.518 17.957 38.863 19.14 53.796 54.214 12.183 14.781 22.525 31.014 32.857 47.143 12.69 7.2452 29.988 12.36 38.571 65.714 9.2186 16.094 35.63 32.08 27.143 48.571-3.9463 7.6683-15.481 3.5597-25.714 2.8571-9.5614-6.2965-4.4398-22.85-10-32.857-21.518-7.2137-17.476-25.697-30-34.286-50.026-14.91-48.192-30.902-74.286-27.143 0.8055 59.085-22.501 30.986-32.857 24.286-15.467 27.435-32.731 7.7567-38.571-5.7143-9.05-0.4279-18.781-2.0595-27.143 1.4286-6.5334 2.7254-15.007 7.2421-15.714 14.286-1.7706 17.627 36.182 25.791 31.429 42.857-4.9827 17.89-33.068 18.641-51.429 21.429-15.132 2.2971-11.858 4.5404-45.714-4.2857-3.5262-14.778 39.987-9.1585 38.571-24.286-1.574-16.816-33.018-9.3108-47.143-18.571-6.195-4.0617-15.103-8.3317-15.714-15.714-0.6757-8.1648 17.552-12.486 14.286-20-47.394 11.704-62.936 0.3264-87.143-11.429-10.662 2.5507-18.21 12.217-27.143 18.571-11.098 7.8943-21.899 16.199-32.857 24.286-9.0427 6.6734-18.727 12.552-27.143 20-8.8287 7.8139-12.778 23.149-24.286 25.714-16.485 3.675-45.159-1.7987-47.143-18.571-2.7309-23.09 41.955-22.396 57.143-40 13.911-16.124 35.896-37.146 28.571-57.143-44.627 12.425-55.966-4.9993-60-25.714-7.8923 1.8631-9.8671 12.953-15.714 18.571-21.773 20.922-47.568 26.03-61.429 52.857-4.8138 9.3169-3.4237 27.511-11.429 34.286-12.083 10.226-41.007 8.8775-47.143-5.7143z" fill="#1a1a1a"/>
</svg>
